<mxfile host="app.diagrams.net" modified="2024-05-21T22:10:02.889Z" agent="Mozilla/5.0 (Windows NT 10.0; Win64; x64) AppleWebKit/537.36 (KHTML, like Gecko) Chrome/125.0.0.0 Safari/537.36" version="24.4.4" etag="q3dlL3oBpjh8gitnqs3f" type="github">
  <diagram name="PÃ¡gina-1" id="1_3evZqiN-lLb-iPQv4Q">
    <mxGraphModel>
      <root>
        <mxCell id="0" />
        <mxCell id="1" parent="0" />
      </root>
    </mxGraphModel>
  </diagram>
</mxfile>
